<svg width="512" height="512" viewBox="0 0 512 512" fill="none" xmlns="http://www.w3.org/2000/svg">
<rect width="512" height="512" fill="white"/>
<g filter="url(#filter0_d_5_2)">
<path d="M159.538 82.1665L335.6 128.124C349.067 131.288 376 145.708 376 178.078V254.508V329.938C376 348.021 370.015 372.399 335.6 381.391C305.992 389.127 205.757 416.358 159.538 429.846C151.725 432.177 136.097 432.544 136.097 415.359V387.385C135.432 382.889 137.892 372.899 153.055 368.902C168.217 364.906 193.62 358.578 204.427 355.914V278.985L262.782 276.987V339.429L298.692 330.438C304.844 329.106 316.149 321.963 316.149 303.962C316.149 284.98 315.816 263.499 316.149 254.508V206.052C316.814 199.392 314.154 184.972 298.194 180.576C282.233 176.18 267.935 171.751 262.782 170.085V233.527L204.427 228.532V155.599L151.06 141.612C146.571 140.28 137.493 135.717 137.094 128.124C136.695 120.531 136.928 102.648 137.094 94.655C136.928 88.4959 141.184 77.3754 159.538 82.1665Z" fill="black"/>
<path d="M376 178.078C376 145.708 349.067 131.288 335.6 128.124L159.538 82.1665C141.184 77.3754 136.928 88.4959 137.094 94.655C136.928 102.648 136.695 120.531 137.094 128.124C137.493 135.717 146.571 140.28 151.06 141.612L204.427 155.599V228.532L262.782 233.527V170.085C267.935 171.751 282.233 176.18 298.194 180.576C314.154 184.972 316.814 199.392 316.149 206.052V254.508C315.816 263.499 316.149 284.98 316.149 303.962C316.149 321.963 304.844 329.106 298.692 330.438L262.782 339.429V276.987L204.427 278.985V355.914C193.62 358.578 168.217 364.906 153.055 368.902C137.892 372.899 135.432 382.889 136.097 387.385M376 178.078C376 194.684 376 224.445 376 254.508M376 178.078V254.508M376 329.938C376 348.021 370.015 372.399 335.6 381.391C305.992 389.127 205.757 416.358 159.538 429.846C151.725 432.177 136.097 432.544 136.097 415.359M376 329.938C376 311.855 376 283.046 376 254.508M376 329.938V254.508M136.097 415.359C136.097 398.175 136.097 389.55 136.097 387.385M136.097 415.359V387.385M374.504 254.508H376" stroke="black"/>
</g>
<defs>
<filter id="filter0_d_5_2" x="126.5" y="80.5004" width="259" height="372" filterUnits="userSpaceOnUse" color-interpolation-filters="sRGB">
<feFlood flood-opacity="0" result="BackgroundImageFix"/>
<feColorMatrix in="SourceAlpha" type="matrix" values="0 0 0 0 0 0 0 0 0 0 0 0 0 0 0 0 0 0 127 0" result="hardAlpha"/>
<feOffset dy="12"/>
<feGaussianBlur stdDeviation="4.5"/>
<feComposite in2="hardAlpha" operator="out"/>
<feColorMatrix type="matrix" values="0 0 0 0 0 0 0 0 0 0 0 0 0 0 0 0 0 0 0.25 0"/>
<feBlend mode="normal" in2="BackgroundImageFix" result="effect1_dropShadow_5_2"/>
<feBlend mode="normal" in="SourceGraphic" in2="effect1_dropShadow_5_2" result="shape"/>
</filter>
</defs>
</svg>
