<svg width="412" height="512" viewBox="0 0 412 512" fill="none" xmlns="http://www.w3.org/2000/svg">
    <g clip-path="url(#clip0_1_4)">
        <rect width="412" height="512" fill="white" />
        <path
            d="M58 388L137.5 122H236.5C273.5 124.5 355.9 170.6 353.5 251C353.5 280.833 332.3 352.2 275.5 379C282.803 345.015 294.851 321.757 304.091 304C308.453 286.663 316.55 250.401 315.344 239.175C315.286 238.783 315.226 238.391 315.164 238C309.515 202.159 289.393 170.673 231.277 157.5H163.5L105.5 351.5H197.5C210 351.5 236.5 352.5 251 274.5H188.5L171 331H131L179 177.5H217L199.5 236H262L273.5 199C283.667 206.833 302.5 229.4 296.5 257L272.5 336C267.333 351.333 247.6 383.4 210 389H58V388Z"
            fill="black" />
        <path
            d="M304.091 304C294.851 321.757 282.803 345.015 275.5 379C332.3 352.2 353.5 280.833 353.5 251C355.9 170.6 273.5 124.5 236.5 122H137.5L58 388V389H210C247.6 383.4 267.333 351.333 272.5 336L296.5 257C302.5 229.4 283.667 206.833 273.5 199L262 236H199.5L217 177.5H179L131 331H171L188.5 274.5H251C236.5 352.5 210 351.5 197.5 351.5H105.5L163.5 157.5H231.277C289.393 170.673 309.515 202.159 315.164 238M304.091 304C311.3 290.146 316.799 279.64 317 270C317.225 259.194 316.805 248.413 315.164 238M304.091 304C308.62 286 317.175 247.6 315.164 238"
            stroke="black" />
    </g>
    <defs>
        <clipPath id="clip0_1_4">
            <rect width="412" height="512" fill="white" />
        </clipPath>
    </defs>
</svg>